<svg width="1024" height="1024" viewBox="0 0 1024 1024" fill="none" xmlns="http://www.w3.org/2000/svg">
<rect width="1024" height="1024" fill="white"/>
<path d="M427.273 306.447C448.646 306.447 467.271 309.501 483.148 315.607C499.025 321.714 512.154 330.263 522.535 341.254C534.137 353.468 542.076 369.344 546.35 388.885C550.625 408.426 552.762 432.547 552.762 461.248V705.814C552.762 731.461 557.953 748.865 568.334 758.025C579.326 767.185 597.34 771.764 622.377 771.764V791C611.996 790.389 596.119 789.779 574.746 789.168C553.373 787.947 532.611 787.336 512.459 787.336C492.308 787.336 472.461 787.947 452.92 789.168C433.99 789.779 419.64 790.389 409.869 791V771.764C431.853 771.764 447.425 767.185 456.584 758.025C465.744 748.865 470.324 731.461 470.324 705.814V441.096C470.324 422.166 469.103 404.762 466.66 388.885C464.218 373.008 458.111 360.185 448.341 350.414C438.57 340.644 422.693 335.759 400.71 335.759C376.894 335.759 355.521 343.086 336.591 357.742C318.272 372.398 303.616 392.549 292.624 418.197C282.243 443.233 277.053 471.323 277.053 502.467V705.814C277.053 731.461 281.632 748.865 290.792 758.025C299.952 767.185 315.524 771.764 337.507 771.764V791C327.737 790.389 313.081 789.779 293.54 789.168C274.61 787.947 255.069 787.336 234.917 787.336C214.766 787.336 194.004 787.947 172.631 789.168C151.258 789.779 135.381 790.389 125 791V771.764C150.037 771.764 167.746 767.185 178.127 758.025C189.119 748.865 194.614 731.461 194.614 705.814V419.113C194.614 391.633 189.729 371.482 179.959 358.658C170.188 345.224 151.869 338.507 125 338.507V319.271C144.541 321.103 163.471 322.019 181.791 322.019C199.5 322.019 216.293 321.103 232.17 319.271C248.657 316.828 263.618 313.47 277.053 309.195V417.281C292.929 377.588 314.608 349.193 342.087 332.095C369.566 314.996 397.962 306.447 427.273 306.447ZM702.983 306.447C724.356 306.447 742.981 309.501 758.857 315.607C774.734 321.714 787.863 330.263 798.245 341.254C809.847 353.468 817.785 369.344 822.06 388.885C826.335 408.426 828.472 432.547 828.472 461.248V705.814C828.472 731.461 833.662 748.865 844.044 758.025C855.035 767.185 873.05 771.764 898.086 771.764V791C887.705 790.389 871.828 789.779 850.455 789.168C829.083 787.947 808.32 787.336 788.169 787.336C768.017 787.336 748.171 787.947 728.63 789.168C709.7 789.779 695.35 790.389 685.579 791V771.764C707.563 771.764 723.134 767.185 732.294 758.025C741.454 748.865 746.034 731.461 746.034 705.814V441.096C746.034 422.166 744.812 404.762 742.37 388.885C739.927 373.008 733.821 360.185 724.05 350.414C714.28 340.644 698.403 335.759 676.419 335.759C652.604 335.759 631.231 343.086 612.301 357.742C593.981 372.398 579.326 392.244 568.334 417.281C557.953 442.317 552.762 470.407 552.762 501.551L550.014 416.365C566.502 374.23 588.791 345.529 616.881 330.263C644.971 314.386 673.671 306.447 702.983 306.447Z" fill="#333333"/>
<path d="M777.788 137.001C793.665 137.001 807.404 142.803 819.007 154.405C830.609 166.007 836.41 179.747 836.41 195.624C836.41 211.501 830.609 225.241 819.007 236.843C807.404 248.445 793.665 254.247 777.788 254.247C761.911 254.247 748.171 248.445 736.569 236.843C724.966 225.241 719.165 211.501 719.165 195.624C719.165 179.747 724.966 166.007 736.569 154.405C748.171 142.803 761.911 137.001 777.788 137.001Z" fill="#333333"/>
</svg>
